<?xml version="1.0" encoding="UTF-8" standalone="no"?>
<!-- Generator: Adobe Illustrator 16.0.0, SVG Export Plug-In . SVG Version: 6.00 Build 0)  -->

<svg
   xmlns:dc="http://purl.org/dc/elements/1.1/"
   xmlns:cc="http://creativecommons.org/ns#"
   xmlns:rdf="http://www.w3.org/1999/02/22-rdf-syntax-ns#"
   xmlns:svg="http://www.w3.org/2000/svg"
   xmlns="http://www.w3.org/2000/svg"
   xmlns:sodipodi="http://sodipodi.sourceforge.net/DTD/sodipodi-0.dtd"
   xmlns:inkscape="http://www.inkscape.org/namespaces/inkscape"
   version="1.1"
   id="Layer_2"
   x="0px"
   y="0px"
   width="128"
   height="128"
   viewBox="0 0 128 127.99999"
   enable-background="new 0 0 841.89 595.28"
   xml:space="preserve"
   inkscape:version="0.48.4 r9939"
   sodipodi:docname="icon.svg"><metadata
     id="metadata55"><rdf:RDF><cc:Work
         rdf:about=""><dc:format>image/svg+xml</dc:format><dc:type
           rdf:resource="http://purl.org/dc/dcmitype/StillImage" /><dc:title /></cc:Work></rdf:RDF></metadata><defs
     id="defs53" /><sodipodi:namedview
     pagecolor="#ffffff"
     bordercolor="#666666"
     borderopacity="1"
     objecttolerance="10"
     gridtolerance="10"
     guidetolerance="10"
     inkscape:pageopacity="0"
     inkscape:pageshadow="2"
     inkscape:window-width="1366"
     inkscape:window-height="741"
     id="namedview51"
     showgrid="false"
     fit-margin-top="0"
     fit-margin-left="0"
     fit-margin-right="0"
     fit-margin-bottom="0"
     inkscape:zoom="3.1716166"
     inkscape:cx="-7.61408"
     inkscape:cy="64.68817"
     inkscape:window-x="0"
     inkscape:window-y="27"
     inkscape:window-maximized="1"
     inkscape:current-layer="Layer_2"
     width="524.41px"
     showguides="true"
     inkscape:guide-bbox="true" /><linearGradient
     id="SVGID_1_"
     gradientUnits="userSpaceOnUse"
     x1="226.8584"
     y1="284.50681"
     x2="210.5396"
     y2="252.47929"
     gradientTransform="translate(-124.695,-206.60062)"><stop
       offset="0"
       style="stop-color:#FCD08F"
       id="stop12" /><stop
       offset="1"
       style="stop-color:#F79673"
       id="stop14" /></linearGradient><linearGradient
     id="SVGID_2_"
     gradientUnits="userSpaceOnUse"
     x1="203.1299"
     y1="279.73831"
     x2="140.9948"
     y2="346.37"
     gradientTransform="translate(-124.695,-206.60063)"><stop
       offset="0"
       style="stop-color:#E74047"
       id="stop19" /><stop
       offset="1"
       style="stop-color:#7F50A0"
       id="stop21" /></linearGradient><linearGradient
     id="SVGID_3_"
     gradientUnits="userSpaceOnUse"
     x1="203.4604"
     y1="261.66989"
     x2="140.33949"
     y2="196.3062"
     gradientTransform="translate(-124.695,-206.60063)"><stop
       offset="0"
       style="stop-color:#E6FFAB"
       id="stop26" /><stop
       offset="1"
       style="stop-color:#47BEBC"
       id="stop28" /></linearGradient><linearGradient
     id="SVGID_4_"
     gradientUnits="userSpaceOnUse"
     x1="159.23779"
     y1="335.7168"
     x2="159.23779"
     y2="206.7505"
     gradientTransform="translate(-124.695,-206.60063)"><stop
       offset="0"
       style="stop-color:#84E9DB"
       id="stop33" /><stop
       offset="1"
       style="stop-color:#197491"
       id="stop35" /></linearGradient><g
     id="g3000"
     transform="matrix(0.87500001,0,0,0.87500001,7.9999973,8.0000002)"><path
       inkscape:connector-curvature="0"
       id="path16"
       d="M 10.130959,7.8478066e-4 C 9.6995547,0.00731514 9.302772,0.0642056 8.8922708,0.15562076 6.2622887,0.74226332 4.0923553,3.0125306 4.0923553,7.5877481 l 0,112.7205919 c 0,4.30865 1.695516,7.34666 4.8308827,7.6489 1.436878,0.18234 3.152708,-0.21256 5.140555,-1.30062 4.115416,-2.25243 48.334591,-26.4279 78.408942,-42.889568 15.148665,-8.291281 26.694225,-14.62816 27.746615,-15.204893 3.13933,-1.718308 6.42829,-6.09484 0,-9.599832 -2.06613,-1.128692 -13.31367,-7.282989 -27.777582,-15.173926 0,0 -73.951401,-40.3507528 -78.377975,-42.7656987 C 12.787696,0.32631199 11.425171,-0.01881751 10.130959,7.8478066e-4 z"
       style="fill:#fb8521;fill-opacity:1" /><path
       style="fill:#ffffff;fill-opacity:1"
       d="m 14.543919,16.000588 c -0.396064,0.0049 -0.760342,0.04757 -1.137215,0.116127 -2.414533,0.439982 -4.4067051,2.142683 -4.4067051,5.574096 l 0,84.540439 c 0,3.23149 1.5566191,5.51 4.4351361,5.73668 1.319168,0.13675 2.894438,-0.15942 4.71944,-0.97547 3.77828,-1.68932 44.375011,-19.820917 71.985665,-32.16717 13.90768,-6.218461 24.50742,-10.971121 25.4736,-11.40367 2.88216,-1.288731 5.90169,-4.57113 0,-7.199875 -1.89687,-0.846519 -12.22301,-5.462241 -25.502031,-11.380444 0,0 -67.893286,-30.263065 -71.957234,-32.074275 -1.171559,-0.522292 -2.422466,-0.78114 -3.610656,-0.766438 z"
       id="path3795"
       inkscape:connector-curvature="0" /><path
       style="fill:#fb8521;fill-opacity:1"
       d="m 10.130959,32.000382 c -0.4314043,0.0033 -0.828187,0.03171 -1.2386882,0.07742 -2.6299821,0.293321 -4.7999155,1.428454 -4.7999155,3.716063 l 0,56.360301 c 0,2.15432 1.695516,3.67333 4.8308827,3.82445 1.436878,0.0912 3.152708,-0.10628 5.140555,-0.65031 4.115416,-1.12622 48.334591,-13.21395 78.408942,-21.44479 15.148665,-4.14564 26.694225,-7.314078 27.746615,-7.602445 3.13933,-0.859154 6.42829,-3.04742 0,-4.799916 -2.06613,-0.564346 -13.31367,-3.641494 -27.777582,-7.586963 0,0 -73.951401,-20.175377 -78.377975,-21.38285 -1.276097,-0.348195 -2.638622,-0.52076 -3.932834,-0.510958 z"
       id="path3799"
       inkscape:connector-curvature="0" /></g></svg>